HIERARCHY
ROOT Hips
{
	OFFSET 0.000000 0.000000 0.000000
	CHANNELS 6 Xposition Yposition Zposition Xrotation Yrotation Zrotation
	JOINT LeftUpLeg_virtual
	{
		OFFSET 0.000000 0.000000 0.000000
		CHANNELS 3 Xrotation Yrotation Zrotation
		JOINT LeftUpLeg
		{
			OFFSET 15.427100 -6.655098 0.678600
			CHANNELS 3 Xrotation Yrotation Zrotation
			JOINT LeftLeg
			{
				OFFSET 4.081073 -39.591068 13.024000
				CHANNELS 3 Xrotation Yrotation Zrotation
				JOINT LeftFoot
				{
					OFFSET -4.081074 -37.707932 -15.979700
					CHANNELS 3 Xrotation Yrotation Zrotation
					JOINT LeftToeBase
					{
						OFFSET 5.346399 -15.068900 20.645000
						CHANNELS 3 Xrotation Yrotation Zrotation
						JOINT LeftToe_End
						{
							OFFSET 2.754700 0.931300 11.300900
							CHANNELS 3 Xrotation Yrotation Zrotation
							End Site
							{
								OFFSET 0 0 0
							}
						}
					}
				}
			}
		}
	}
	JOINT RightUpLeg_virtual
	{
		OFFSET 0.000000 0.000000 0.000000
		CHANNELS 3 Xrotation Yrotation Zrotation
		JOINT RightUpLeg
		{
			OFFSET -15.569500 -6.655098 0.678600
			CHANNELS 3 Xrotation Yrotation Zrotation
			JOINT RightLeg
			{
				OFFSET -4.081825 -39.591045 13.023800
				CHANNELS 3 Xrotation Yrotation Zrotation
				JOINT RightFoot
				{
					OFFSET 4.081824 -37.707954 -15.979600
					CHANNELS 3 Xrotation Yrotation Zrotation
					JOINT RightToeBase
					{
						OFFSET -5.346400 -15.068900 20.645000
						CHANNELS 3 Xrotation Yrotation Zrotation
						JOINT RightToe_End
						{
							OFFSET -2.754700 0.931300 11.300900
							CHANNELS 3 Xrotation Yrotation Zrotation
							End Site
							{
								OFFSET 0 0 0
							}
						}
					}
				}
			}
		}
	}
	JOINT Spine_virtual
	{
		OFFSET 0.000000 0.000000 0.000000
		CHANNELS 3 Xrotation Yrotation Zrotation
		JOINT Spine
		{
			OFFSET -0.279200 12.230698 -2.892100
			CHANNELS 3 Xrotation Yrotation Zrotation
			JOINT Spine1
			{
				OFFSET -0.232667 10.192268 -1.242267
				CHANNELS 3 Xrotation Yrotation Zrotation
				JOINT Spine1_split
				{
					OFFSET -0.232667 10.192268 -1.242267
					CHANNELS 3 Xrotation Yrotation Zrotation
					JOINT Spine2
					{
						OFFSET -0.232667 10.192268 -1.242267
						CHANNELS 3 Xrotation Yrotation Zrotation
						JOINT Neck_virtual
						{
							OFFSET 0.000000 0.000000 0.000000
							CHANNELS 3 Xrotation Yrotation Zrotation
							JOINT Neck
							{
								OFFSET -0.418800 17.814194 8.416900
								CHANNELS 3 Xrotation Yrotation Zrotation
								JOINT Head
								{
									OFFSET 0.000000 7.031097 3.806800
									CHANNELS 3 Xrotation Yrotation Zrotation
									JOINT HeadTop_End
									{
										OFFSET 0.000000 24.646606 12.978600
										CHANNELS 3 Xrotation Yrotation Zrotation
										End Site
										{
											OFFSET 0 0 0
										}
									}
								}
							}
						}
						JOINT LeftShoulder_virtual
						{
							OFFSET 0.000000 0.000000 0.000000
							CHANNELS 3 Xrotation Yrotation Zrotation
							JOINT LeftShoulder
							{
								OFFSET 8.476499 7.247704 -3.868750
								CHANNELS 3 Xrotation Yrotation Zrotation
								JOINT LeftShoulder_split
								{
									OFFSET 8.476499 7.247704 -3.868750
									CHANNELS 3 Xrotation Yrotation Zrotation
									JOINT LeftArm
									{
										OFFSET 9.308998 -2.777710 0.208600
										CHANNELS 3 Xrotation Yrotation Zrotation
										JOINT LeftForeArm
										{
											OFFSET 29.972298 0.000000 0.000000
											CHANNELS 3 Xrotation Yrotation Zrotation
											JOINT LeftHand
											{
												OFFSET 26.026505 0.000000 0.000000
												CHANNELS 3 Xrotation Yrotation Zrotation
												End Site
												{
													OFFSET 0 0 0
												}
											}
										}
									}
								}
							}
						}
						JOINT RightShoulder_virtual
						{
							OFFSET 0.000000 0.000000 0.000000
							CHANNELS 3 Xrotation Yrotation Zrotation
							JOINT RightShoulder
							{
								OFFSET -7.570500 7.247704 -3.868750
								CHANNELS 3 Xrotation Yrotation Zrotation
								JOINT RightShoulder_split
								{
									OFFSET -7.570500 7.247704 -3.868750
									CHANNELS 3 Xrotation Yrotation Zrotation
									JOINT RightArm
									{
										OFFSET -9.308998 -2.777710 0.208500
										CHANNELS 3 Xrotation Yrotation Zrotation
										JOINT RightForeArm
										{
											OFFSET -29.972300 0.000000 0.000000
											CHANNELS 3 Xrotation Yrotation Zrotation
											JOINT RightHand
											{
												OFFSET -26.026505 0.000000 0.000000
												CHANNELS 3 Xrotation Yrotation Zrotation
												End Site
												{
													OFFSET 0 0 0
												}
											}
										}
									}
								}
							}
						}
					}
				}
			}
		}
	}
}
MOTION
Frames: 5
Frame Time: 0.03333333
12.857873 56.381573 -49.104637 0.000000 0.000000 0.000000 39.365963 -25.608640 10.613947 -39.927005 -10.816475 -4.915590 93.465661 -0.169513 -3.537124 11.329120 0.505184 -9.377958 -4.994011 -13.068455 -33.805355 0.000000 0.000000 0.000000 41.736643 -24.486160 10.374462 -76.555752 -23.455812 -15.133063 89.543350 -16.861673 2.090402 -31.596387 -6.845645 5.477356 -8.891872 -0.793121 -0.156581 0.000000 0.000000 0.000000 37.573181 -25.481168 11.351476 40.337591 8.981359 3.534294 4.787849 1.996752 0.698689 0.113268 -0.214899 1.890892 0.000000 0.000000 0.000000 6.641237 2.344991 1.141432 -8.850351 -4.408354 0.933383 -21.854131 -17.138169 -6.275340 0.000000 0.000000 0.000000 5.330502 2.288435 0.617643 4.255026 -22.943782 -8.607490 5.529199 0.621524 -3.848616 -24.691264 -19.889495 -37.846918 1.555128 -36.475099 0.339419 0.000000 0.000000 0.000000 4.980457 2.099222 1.353019 1.042070 28.933648 12.493572 -0.379653 2.191324 -0.706165 -52.115832 47.294436 19.450019 -1.609680 16.262552 1.116206 0.000000 0.000000 0.000000 
13.103340 57.088081 -48.859695 0.000000 0.000000 0.000000 38.537034 -27.540588 11.323544 -41.996852 -6.051612 -2.166787 93.452492 -1.761182 -6.358040 5.755939 0.110220 -6.750911 -19.947953 -12.823125 -19.624226 0.000000 0.000000 0.000000 40.376079 -24.928394 10.597310 -75.524701 -22.882035 -16.138981 89.082940 -16.437707 3.617897 -33.494821 -6.987457 5.074927 -8.285306 -0.655746 -0.096578 0.000000 0.000000 0.000000 36.375573 -27.020865 11.608910 39.891751 8.725912 2.870432 4.909816 2.070434 0.563538 0.017501 -0.025002 1.866265 0.000000 0.000000 0.000000 6.814560 2.356215 0.962478 -7.898055 -3.747344 0.322708 -21.462918 -15.554789 -6.804136 0.000000 0.000000 0.000000 5.537733 2.333168 0.365781 4.620882 -23.744104 -9.018502 4.820610 0.171726 -3.754467 -22.201426 -17.203353 -36.918142 1.689780 -38.334467 0.278433 0.000000 0.000000 0.000000 5.154772 2.130490 1.138956 1.349315 28.346405 12.071521 -0.290974 2.261319 -0.994759 -49.644284 45.215743 19.472188 -1.640024 19.626584 1.151212 0.000000 0.000000 0.000000 
13.224238 57.691338 -48.246552 0.000000 0.000000 0.000000 37.691805 -28.755814 12.007488 -46.659652 -3.147022 -0.253512 94.096217 -4.450451 -7.563658 3.599851 -2.789134 -7.708350 -40.062167 -16.219068 -4.489648 0.000000 0.000000 0.000000 39.231015 -25.868023 11.297057 -74.342456 -22.131964 -16.643059 88.776941 -16.182665 5.097056 -35.266258 -7.603627 4.324107 -8.251589 -0.353427 -0.236820 0.000000 0.000000 0.000000 35.543358 -28.025697 11.830161 39.111091 8.432227 1.811655 5.049806 2.156743 0.421966 -0.006367 -0.321924 1.786772 0.000000 0.000000 0.000000 6.850644 2.387657 0.791459 -7.137153 -3.094305 -0.314452 -21.025481 -13.754078 -7.162967 0.000000 0.000000 0.000000 5.735546 2.387022 0.141032 5.057877 -24.486042 -9.048192 4.192381 -0.379762 -3.598979 -20.155864 -14.610697 -35.906318 1.672178 -39.892287 0.151118 0.000000 0.000000 0.000000 5.356113 2.173882 0.927813 1.806406 27.452253 11.366638 -0.168549 2.037550 -1.230304 -47.714028 43.458602 19.685954 -1.665687 23.509830 1.296457 0.000000 0.000000 0.000000 
13.170548 58.286533 -47.320381 0.000000 0.000000 0.000000 36.785777 -29.081542 12.570036 -52.922426 -2.261486 0.711914 94.598994 -6.773108 -7.157395 4.189752 -6.277958 -10.291449 -61.381954 -21.610997 5.276699 0.000000 0.000000 0.000000 38.524849 -27.287630 12.326296 -72.851044 -21.216504 -16.715215 87.998026 -15.512859 6.193763 -36.346025 -8.468588 4.021454 -9.095934 0.063185 -0.561796 0.000000 0.000000 0.000000 34.993989 -28.349236 11.889156 38.127950 8.107284 0.481904 5.235004 2.226254 0.292402 0.058615 -0.654147 1.770869 0.000000 0.000000 0.000000 6.788452 2.424832 0.650528 -6.625151 -2.529284 -0.927173 -20.624680 -11.935709 -7.361599 0.000000 0.000000 0.000000 5.940393 2.451576 -0.047527 5.553930 -25.172730 -8.654125 3.737429 -0.944633 -3.467830 -18.720937 -12.299396 -34.777517 1.523368 -41.263174 0.030756 0.000000 0.000000 0.000000 5.588261 2.238067 0.734357 2.347823 26.284544 10.463740 0.033040 1.648823 -1.346197 -46.513653 42.431785 20.056664 -1.738287 27.150275 1.544243 0.000000 0.000000 0.000000 
13.054957 59.090668 -45.929001 0.000000 0.000000 0.000000 35.901496 -28.663517 12.776863 -59.335240 -3.046148 0.030856 94.845141 -7.096727 -5.630477 5.269907 -8.226772 -12.143561 -77.040101 -24.136652 8.068230 0.000000 0.000000 0.000000 37.971006 -28.506891 13.190462 -70.597546 -20.377021 -16.550126 86.555169 -14.328567 6.617147 -36.804857 -9.525711 4.078499 -10.209874 0.507739 -0.913477 0.000000 0.000000 0.000000 34.621163 -28.225612 11.699508 37.233571 7.701979 -0.911496 5.444051 2.251336 0.198780 0.075784 -0.797432 1.833371 0.000000 0.000000 0.000000 6.702500 2.451335 0.527614 -6.431326 -2.119147 -1.450384 -20.346579 -10.211574 -7.437375 0.000000 0.000000 0.000000 6.177995 2.517310 -0.192930 6.072176 -25.874748 -7.874263 3.482200 -1.314665 -3.354153 -17.929938 -10.412765 -33.542799 1.369503 -42.591584 0.035457 0.000000 0.000000 0.000000 5.840426 2.312951 0.583752 2.865049 24.822905 9.304036 0.394486 1.273971 -1.291337 -46.183810 42.375938 20.736389 -1.867049 30.103587 1.832282 0.000000 0.000000 0.000000 
